<svg width="60" height="81" viewBox="0 0 60 81" fill="none" xmlns="http://www.w3.org/2000/svg">
<g filter="url(#filter0_df_2656_3459)">
<ellipse cx="30.2753" cy="25.8913" rx="20.756" ry="20.3644" fill="url(#paint0_radial_2656_3459)" fill-opacity="0.8" shape-rendering="crispEdges"/>
</g>
<path d="M50.5313 25.8913C50.5313 36.8532 41.4714 45.7557 30.2753 45.7557C19.0792 45.7557 10.0193 36.8532 10.0193 25.8913C10.0193 14.9294 19.0792 6.02686 30.2753 6.02686C41.4714 6.02686 50.5313 14.9294 50.5313 25.8913Z" stroke="white" stroke-opacity="0.6"/>
<g filter="url(#filter1_d_2656_3459)">
<path d="M55.2307 25.891C55.2307 39.45 44.0651 50.4549 30.2752 50.4549C16.4853 50.4549 5.31967 39.45 5.31967 25.891C5.31967 12.3321 16.4853 1.32715 30.2752 1.32715C44.0651 1.32715 55.2307 12.3321 55.2307 25.891Z" stroke="white" stroke-opacity="0.8" shape-rendering="crispEdges"/>
</g>
<g filter="url(#filter2_d_2656_3459)">
<path fill-rule="evenodd" clip-rule="evenodd" d="M27.6 20.4875C26.5203 20.8417 25.8212 21.4441 25.3498 22.4267L25.051 23.0496L24.9944 33.9978L24.9377 44.9461L24.6605 45.241C24.508 45.4032 24.0747 45.7094 23.6975 45.9214C22.4131 46.6435 21.641 47.7062 21.3625 49.1355C21.0567 50.7044 21.5067 53.3551 22.5113 55.9027C23.4054 58.1703 25.3986 61.8786 27.0871 64.416L27.6338 65.2376L27.8567 68.21C28.0973 71.4202 28.1729 71.7462 28.7751 72.1757C29.1232 72.4239 29.1998 72.429 33.2077 72.4654C35.4508 72.4859 39.6453 72.4671 42.5288 72.4237C47.6331 72.3469 47.7813 72.3384 48.1365 72.1019C48.3373 71.9684 48.5867 71.6814 48.691 71.4642C48.8053 71.2259 49.034 69.9 49.2676 68.1225L49.6548 65.1757L50.3729 63.9887C52.1375 61.0721 53.4991 57.6133 54.0582 54.6273C54.5946 51.7628 54.5441 47.8441 53.9403 45.4738C53.4971 43.7339 52.3368 42.1076 51.0011 41.354C50.3093 40.9636 49.1134 40.593 48.2183 40.4915C47.453 40.4047 47.1744 40.2593 46.8015 39.752C46.2081 38.9447 45.4496 38.2719 44.7381 37.9217C44.137 37.6259 43.8322 37.5518 43.0448 37.5106C42.5167 37.4829 41.7098 37.5242 41.2518 37.6026C40.7939 37.6808 40.2794 37.7098 40.1084 37.667C39.9362 37.6238 39.4146 37.1972 38.9384 36.7099C37.6089 35.35 36.4691 34.9189 34.5672 35.0571C33.5419 35.1316 33.0706 34.9689 32.6493 34.3951C32.4215 34.0848 32.4131 33.9148 32.3581 28.5059L32.3014 22.9363L32.0269 22.3787C31.6742 21.6624 31.0031 20.9944 30.3358 20.6957C29.7656 20.4405 28.1243 20.3156 27.6 20.4875Z" fill="white"/>
<path d="M48.691 71.4642C48.8053 71.2259 49.034 69.9 49.2676 68.1225L49.6548 65.1757L50.3729 63.9887L49.5173 63.4711L48.7992 64.6581L48.6907 64.8375L48.6633 65.0455L48.2761 67.9922C48.1604 68.8727 48.0468 69.6344 47.9491 70.2005C47.9001 70.4845 47.8565 70.7109 47.8202 70.8749C47.798 70.9747 47.7832 71.029 47.7771 71.0515M48.691 71.4642L47.7894 71.0316C47.7912 71.0278 47.788 71.0347 47.7771 71.0515M48.691 71.4642L47.7893 71.0316C47.7796 71.052 47.7746 71.0642 47.7741 71.064C47.7738 71.0639 47.7748 71.06 47.7771 71.0515M48.691 71.4642C48.5867 71.6814 48.3373 71.9684 48.1365 72.1019L47.5819 71.2698M47.7771 71.0515C47.7741 71.0562 47.7704 71.0616 47.7661 71.0678C47.7477 71.0945 47.7234 71.1259 47.6952 71.1583C47.6671 71.1908 47.6393 71.2192 47.6155 71.2412C47.5935 71.2614 47.5818 71.2698 47.5818 71.2699C47.5818 71.2699 47.5818 71.2698 47.5819 71.2698M47.5819 71.2698C47.5803 71.2709 47.5787 71.2719 47.5773 71.2728C47.52 71.2852 47.3817 71.3056 47.0563 71.3243C46.3639 71.364 45.0799 71.3852 42.5138 71.4238C39.6361 71.4672 35.45 71.4859 33.2168 71.4655C31.1937 71.4471 30.2118 71.4366 29.6842 71.4021C29.5579 71.3938 29.4726 71.385 29.4144 71.3768C29.3935 71.3738 29.3777 71.3711 29.3661 71.3689C29.3631 71.3668 29.3596 71.3643 29.3558 71.3616C29.299 71.3211 29.2711 71.2977 29.2558 71.2834C29.2439 71.2723 29.2408 71.2678 29.2396 71.2659L29.2395 71.2657L29.2394 71.2656C29.2366 71.2615 29.2004 71.2083 29.1545 71.01C29.0517 70.5663 28.9768 69.7749 28.8539 68.1353L28.631 65.1628L28.6115 64.9016L28.4663 64.6836L27.9196 63.862C26.2609 61.3694 24.3043 57.7239 23.4416 55.5359L23.4416 55.5359C22.9627 54.3214 22.6188 53.0886 22.4314 51.9847C22.2412 50.8647 22.2237 49.9441 22.344 49.3268C22.5657 48.1893 23.1553 47.3735 24.1876 46.7931C24.4091 46.6686 24.6407 46.5203 24.8404 46.3792C25.022 46.2508 25.2392 46.0853 25.389 45.926L25.3891 45.9259L25.6663 45.631L25.9357 45.3445L25.9377 44.9513L25.9943 34.003L26.0498 23.2795L26.2514 22.8592L26.2515 22.8592C26.5994 22.1339 27.0785 21.711 27.9115 21.4378C27.9103 21.4381 27.9114 21.4379 27.915 21.4373C27.9339 21.4338 28.0227 21.4175 28.2043 21.411C28.3962 21.4041 28.6302 21.41 28.8748 21.4286C29.411 21.4694 29.8124 21.5571 29.9272 21.6084L47.5819 71.2698ZM42.9925 38.5092L42.9924 38.5092C42.5281 38.4848 41.7962 38.524 41.4205 38.5882L41.4203 38.5883C41.1541 38.6338 40.8736 38.6648 40.6288 38.6786C40.4336 38.6896 40.1179 38.7003 39.8655 38.6371L39.8647 38.6369C39.6381 38.5799 39.4468 38.4542 39.3653 38.3999C39.2486 38.3221 39.1251 38.2278 39.0043 38.129C38.761 37.9301 38.4843 37.6761 38.2232 37.4088M42.9925 38.5092L29.9273 21.6084C30.3617 21.803 30.8699 22.2926 31.1297 22.8204L32.0269 22.3787L31.1297 22.8204L31.3038 23.1739L31.3581 28.5161C31.3855 31.2075 31.4014 32.6293 31.4401 33.4119C31.459 33.7944 31.4857 34.0927 31.5417 34.3323C31.6138 34.6407 31.7291 34.8315 31.8432 34.9869L31.8433 34.987C32.1429 35.395 32.5201 35.7297 33.0555 35.9145C33.5476 36.0843 34.0844 36.0948 34.6396 36.0545L34.5672 35.0571L34.6397 36.0544C35.502 35.9918 36.1051 36.0647 36.6138 36.2571C37.1222 36.4493 37.6211 36.793 38.2232 37.4088M42.9925 38.5092C43.3691 38.529 43.5677 38.5542 43.7254 38.5925C43.8742 38.6286 44.0266 38.6861 44.2965 38.8189L42.9925 38.5092ZM38.2232 37.4088L38.9384 36.7099L38.2233 37.4089C38.2232 37.4089 38.2232 37.4089 38.2232 37.4088ZM28.7751 72.1757L29.3518 71.3673L28.7751 72.1757Z" stroke="#DADADA" stroke-width="2"/>
</g>
<defs>
<filter id="filter0_df_2656_3459" x="5.51926" y="3.52686" width="49.5121" height="50.729" filterUnits="userSpaceOnUse" color-interpolation-filters="sRGB">
<feFlood flood-opacity="0" result="BackgroundImageFix"/>
<feColorMatrix in="SourceAlpha" type="matrix" values="0 0 0 0 0 0 0 0 0 0 0 0 0 0 0 0 0 0 127 0" result="hardAlpha"/>
<feOffset dy="4"/>
<feGaussianBlur stdDeviation="2"/>
<feComposite in2="hardAlpha" operator="out"/>
<feColorMatrix type="matrix" values="0 0 0 0 0 0 0 0 0 0 0 0 0 0 0 0 0 0 0.25 0"/>
<feBlend mode="normal" in2="BackgroundImageFix" result="effect1_dropShadow_2656_3459"/>
<feBlend mode="normal" in="SourceGraphic" in2="effect1_dropShadow_2656_3459" result="shape"/>
<feGaussianBlur stdDeviation="1" result="effect2_foregroundBlur_2656_3459"/>
</filter>
<filter id="filter1_d_2656_3459" x="0.819672" y="0.827148" width="58.911" height="58.1279" filterUnits="userSpaceOnUse" color-interpolation-filters="sRGB">
<feFlood flood-opacity="0" result="BackgroundImageFix"/>
<feColorMatrix in="SourceAlpha" type="matrix" values="0 0 0 0 0 0 0 0 0 0 0 0 0 0 0 0 0 0 127 0" result="hardAlpha"/>
<feOffset dy="4"/>
<feGaussianBlur stdDeviation="2"/>
<feComposite in2="hardAlpha" operator="out"/>
<feColorMatrix type="matrix" values="0 0 0 0 0 0 0 0 0 0 0 0 0 0 0 0 0 0 0.25 0"/>
<feBlend mode="normal" in2="BackgroundImageFix" result="effect1_dropShadow_2656_3459"/>
<feBlend mode="normal" in="SourceGraphic" in2="effect1_dropShadow_2656_3459" result="shape"/>
</filter>
<filter id="filter2_d_2656_3459" x="17.2679" y="20.4082" width="41.1612" height="60.0654" filterUnits="userSpaceOnUse" color-interpolation-filters="sRGB">
<feFlood flood-opacity="0" result="BackgroundImageFix"/>
<feColorMatrix in="SourceAlpha" type="matrix" values="0 0 0 0 0 0 0 0 0 0 0 0 0 0 0 0 0 0 127 0" result="hardAlpha"/>
<feOffset dy="4"/>
<feGaussianBlur stdDeviation="2"/>
<feComposite in2="hardAlpha" operator="out"/>
<feColorMatrix type="matrix" values="0 0 0 0 0 0 0 0 0 0 0 0 0 0 0 0 0 0 0.25 0"/>
<feBlend mode="normal" in2="BackgroundImageFix" result="effect1_dropShadow_2656_3459"/>
<feBlend mode="normal" in="SourceGraphic" in2="effect1_dropShadow_2656_3459" result="shape"/>
</filter>
<radialGradient id="paint0_radial_2656_3459" cx="0" cy="0" r="1" gradientUnits="userSpaceOnUse" gradientTransform="translate(30.2753 25.8913) rotate(-98.2843) scale(18.7897 19.1361)">
<stop stop-color="white"/>
<stop offset="1" stop-color="#E9E9E9"/>
</radialGradient>
</defs>
</svg>
