<svg width="16" height="17" viewBox="0 0 16 17" fill="none" xmlns="http://www.w3.org/2000/svg">
<path d="M11.1301 1.46855V11.7484H1.39126V1.46855H11.1301ZM11.1301 0H1.39126C0.626068 0 0 0.660849 0 1.46855V11.7484C0 12.5561 0.626068 13.217 1.39126 13.217H11.1301C11.8953 13.217 12.5214 12.5561 12.5214 11.7484V1.46855C12.5214 0.660849 11.8953 0 11.1301 0Z" fill="#4F4F4F"/>
<path d="M14.6084 4.94927V15.2291H4.86953V4.94927H14.6084ZM14.6084 3.48071H4.86953C4.10434 3.48071 3.47827 4.14156 3.47827 4.94927V15.2291C3.47827 16.0368 4.10434 16.6977 4.86953 16.6977H14.6084C15.3736 16.6977 15.9996 16.0368 15.9996 15.2291V4.94927C15.9996 4.14156 15.3736 3.48071 14.6084 3.48071Z" fill="#4F4F4F"/>
<path d="M14.6084 4.94927V15.2291H4.86953V4.94927H14.6084ZM14.6084 3.48071H4.86953C4.10434 3.48071 3.47827 4.14156 3.47827 4.94927V15.2291C3.47827 16.0368 4.10434 16.6977 4.86953 16.6977H14.6084C15.3736 16.6977 15.9996 16.0368 15.9996 15.2291V4.94927C15.9996 4.14156 15.3736 3.48071 14.6084 3.48071Z" fill="#4F4F4F"/>
<rect x="4.87012" y="4.86523" width="9.73883" height="10.4345" fill="#F8F8F8"/>
</svg>
