<svg width="11" height="18" viewBox="0 0 11 18" fill="none" xmlns="http://www.w3.org/2000/svg">
<g opacity="0.8">
<path d="M5.49626 12C5.3997 11.9507 5.30251 11.9063 5.2109 11.8528C4.15447 11.2401 3.09844 10.628 2.04283 10.0165C1.42383 9.6609 0.807915 9.31189 0.191385 8.95688C-0.0364087 8.82593 -0.0481698 8.78989 0.0892494 8.56883C0.844023 7.35263 1.60004 6.13662 2.35729 4.92082C2.85249 4.11989 3.34893 3.31896 3.84661 2.51804C4.23287 1.89752 4.62285 1.27881 5.01034 0.661893C5.11991 0.481684 5.22638 0.306882 5.33408 0.130879C5.44179 -0.0451248 5.56312 -0.0421213 5.66958 0.130879C6.4161 1.32586 7.16283 2.52284 7.90976 3.72183C8.7318 5.04336 9.5526 6.36709 10.3722 7.69302C10.5579 7.99337 10.7436 8.29372 10.9293 8.59406C11.0388 8.77067 11.0271 8.83434 10.8519 8.93586C9.69642 9.60263 8.54094 10.2684 7.38547 10.9332C6.80484 11.2672 6.22421 11.6011 5.64359 11.9351C5.59902 11.958 5.55135 11.9748 5.49626 12Z" fill="#2D2D2D"/>
<path d="M10.9999 11.1443C10.9803 11.178 10.9585 11.2107 10.9344 11.2421C10.4594 11.8382 9.9842 12.434 9.50876 13.0297C9.00038 13.6695 8.49527 14.311 7.98689 14.9508C7.20436 15.9357 6.42075 16.9203 5.63604 17.9046C5.53398 18.0329 5.43387 18.0317 5.32984 17.9017L2.96329 14.9249C2.50137 14.3442 2.03922 13.764 1.57686 13.1845C1.06172 12.5374 0.549416 11.8888 0.0399457 11.2387C0.0195668 11.2111 0.00656332 11.1799 0.00191635 11.1473C-0.00273062 11.1147 0.00110028 11.0816 0.01312 11.0505C0.0661171 10.9682 0.15968 11.0016 0.241465 11.0442C0.999127 11.4412 1.75766 11.837 2.51707 12.2317L5.19964 13.6321C5.24919 13.6682 5.30453 13.6976 5.36386 13.7195C5.44172 13.7345 5.54379 13.7494 5.60529 13.7195C6.43165 13.2938 7.25278 12.8565 8.07653 12.4285C8.70333 12.1005 9.33123 11.7745 9.96021 11.4504C10.2272 11.3111 10.4928 11.1702 10.7624 11.0344C10.8854 10.9705 11.0045 11.0235 10.9999 11.1443Z" fill="#2D2D2D"/>
</g>
</svg>
