<svg width="9" height="15" viewBox="0 0 9 15" fill="none" xmlns="http://www.w3.org/2000/svg">
<path d="M4.04217 10.0176C3.97115 9.97649 3.89968 9.93938 3.8323 9.89475C3.05536 9.38326 2.27872 8.87227 1.50238 8.36178C1.04714 8.06492 0.594173 7.77357 0.140752 7.47721C-0.0267764 7.36789 -0.035426 7.3378 0.0656376 7.15327C0.620728 6.13798 1.17673 5.12285 1.73364 4.1079C2.09783 3.43929 2.46294 2.77067 2.82895 2.10206C3.11302 1.58405 3.39982 1.06755 3.68481 0.552548C3.76538 0.40211 3.84368 0.256185 3.9229 0.109258C4.00211 -0.0376702 4.09134 -0.0351629 4.16964 0.109258C4.71866 1.10683 5.26783 2.10607 5.81715 3.10699C6.42172 4.2102 7.02536 5.31525 7.6281 6.42214C7.76468 6.67287 7.90125 6.9236 8.03782 7.17433C8.1184 7.32176 8.10975 7.37491 7.98092 7.45966C7.13113 8.01628 6.28135 8.57206 5.43157 9.12701C5.00455 9.40582 4.57753 9.68464 4.15052 9.96345C4.11774 9.9825 4.08269 9.99654 4.04217 10.0176Z" fill="#7E00CB"/>
<path d="M7.88292 8.85819C7.86931 8.88759 7.85411 8.91605 7.83739 8.94344C7.50689 9.46295 7.17623 9.98229 6.84542 10.5015C6.4917 11.0591 6.14025 11.6182 5.78653 12.1758C5.24206 13.0343 4.69683 13.8925 4.15085 14.7503C4.07983 14.8622 4.01018 14.8612 3.93779 14.7478L2.29118 12.1533C1.96978 11.6471 1.64823 11.1415 1.32653 10.6364C0.968099 10.0724 0.611645 9.50708 0.257164 8.94043C0.242984 8.91644 0.233937 8.88921 0.230703 8.86081C0.22747 8.8324 0.230136 8.80356 0.238499 8.77645C0.275373 8.70474 0.340473 8.73383 0.397378 8.77093C0.924548 9.11694 1.45232 9.46195 1.98071 9.80595L3.8472 11.0265C3.88168 11.058 3.92018 11.0836 3.96146 11.1027C4.01564 11.1158 4.08666 11.1288 4.12945 11.1027C4.70442 10.7316 5.27575 10.3505 5.8489 9.97745C6.28502 9.69161 6.7219 9.40745 7.15954 9.12497C7.34528 9.00361 7.5301 8.88075 7.71766 8.76241C7.80325 8.70675 7.8861 8.75288 7.88292 8.85819Z" fill="#7E00CB"/>
</svg>
