<svg width="145" height="137" viewBox="0 0 145 137" fill="none" xmlns="http://www.w3.org/2000/svg">
<g clip-path="url(#clip0_2439_5341)">
<path d="M29.5742 91.1025C29.5742 90.6017 29.6861 90.2074 29.5423 90.0369C29.4144 89.8824 28.9936 89.973 28.4556 89.9357C19.1231 80.1329 9.60417 70.1276 0 60.0317C1.07601 59.2326 2.08277 58.4654 3.10551 57.7249C9.34315 53.1911 15.5861 48.6626 21.8291 44.1288C25.3767 41.5555 28.9137 38.9663 32.4826 36.4197C32.994 36.0521 33.0899 35.6418 33.0899 35.0824C33.0792 30.0585 33.0846 25.0345 33.0846 20.0106C33.0846 19.2931 33.4539 18.9344 34.1925 18.9344C41.3517 18.9344 48.5109 18.9451 55.6701 18.9131C56.1814 18.9131 56.7727 18.7213 57.1882 18.4229C65.482 12.424 73.7598 6.39848 82.0429 0.378262C82.1867 0.271709 82.3519 0.197122 82.7034 0C81.0521 4.45923 79.4701 8.72133 77.888 12.9888L78.0745 13.1433C78.3408 13.0261 78.6071 12.9248 78.8628 12.797C83.1456 10.6446 87.652 9.26475 92.4461 8.87583C93.57 8.78526 93.5647 8.79592 93.5754 7.63982C93.5913 5.86039 93.3943 6.09481 95.1255 6.07883C96.2068 6.06817 97.2935 6.12145 98.3695 6.06284C99.1365 6.02022 99.3016 6.32922 99.291 7.02714C99.2644 8.77993 99.291 8.76928 101.059 9.00369C108.464 9.98398 115.026 12.8716 120.705 17.7197C127.874 23.8358 132.173 31.5822 133.707 40.8682C133.867 41.8272 133.974 42.7915 134.048 43.7611C134.091 44.2779 134.272 44.5283 134.81 44.4751C135.055 44.4484 135.311 44.491 135.561 44.4751C136.147 44.4324 136.339 44.7095 136.328 45.2689C136.307 46.6541 136.301 48.0446 136.328 49.4297C136.339 50.0318 136.078 50.1756 135.529 50.1863C134.022 50.2076 134.048 50.2289 133.835 51.7313C132.237 62.9086 126.825 71.7685 117.567 78.2256C111.591 82.3971 104.9 84.5495 97.6184 84.8159C96.7501 84.8478 96.6489 85.2154 96.6489 85.94C96.6649 100.069 96.6596 114.192 96.6596 128.321C96.6596 129.195 96.2299 129.634 95.3705 129.637C84.7702 129.637 74.1699 129.637 63.5697 129.637C62.6748 129.637 62.2273 130.097 62.2273 131.017C62.2273 132.653 62.1847 134.294 62.2433 135.929C62.2753 136.771 62.0196 137.016 61.1726 137.011C50.599 136.989 40.0253 137.011 29.457 137.011C20.5773 137.011 11.6976 137 2.81786 136.995C1.62466 136.995 1.61934 136.995 1.61934 135.844C1.61934 130.293 1.63532 124.741 1.59803 119.19C1.5927 118.337 1.84306 118.124 2.67404 118.124C12.4167 118.14 22.154 118.124 31.8967 118.108C32.6851 118.108 33.081 117.709 33.0846 116.91C33.0846 109.834 33.0952 102.754 33.0633 95.6789C33.0633 95.1888 32.8076 94.608 32.488 94.2298C31.5345 93.111 30.4904 92.0774 29.5849 91.1184L29.5742 91.1025ZM96.1535 47.1975C96.2281 46.8565 96.3826 46.4569 96.3826 46.0627C96.3986 40.7617 96.3932 35.4607 96.3932 30.1597C96.3932 28.9024 96.3932 28.8971 95.1041 28.8971C74.9317 28.8971 54.7592 28.8971 34.5867 28.8971C33.3722 28.8971 33.3669 28.8971 33.3669 30.1118C33.3669 62.8021 33.3669 95.4978 33.3669 128.188C33.3669 128.955 33.7628 129.339 34.5548 129.339C54.7272 129.339 74.8997 129.339 95.0722 129.339C95.9493 129.339 96.3879 128.906 96.3879 128.039C96.3879 110.053 96.3879 92.0721 96.3879 74.086C96.3879 65.5405 96.3879 56.9897 96.3772 48.4441C96.3772 48.0286 96.2281 47.6077 96.1482 47.1921L96.1535 47.1975ZM96.6649 29.3925C96.6649 34.912 96.6649 40.4367 96.6649 45.9561C96.6649 47.0536 96.6702 47.059 97.7729 47.059C108.341 47.059 118.909 47.059 129.483 47.059C129.648 47.059 129.819 47.0483 129.984 47.059C130.442 47.0909 130.623 46.8831 130.639 46.425C130.666 45.8016 130.532 44.8959 130.873 44.6349C131.305 44.3046 132.141 44.4964 132.802 44.4644C132.887 44.4644 132.967 44.4537 133.052 44.4644C133.627 44.5177 133.83 44.2833 133.777 43.6866C132.898 34.1821 129.073 26.0681 122.196 19.4565C116.118 13.6174 108.842 10.2237 100.468 9.21147C99.291 9.06763 99.2857 9.0623 99.2803 10.293C99.2697 11.9818 99.4401 11.79 97.7569 11.8007C96.6756 11.806 96.6702 11.8007 96.6702 12.9142C96.6702 18.407 96.6702 23.8997 96.6702 29.3979L96.6649 29.3925ZM96.6649 65.9987C96.6649 71.8804 96.6755 77.7621 96.6542 83.6438C96.6542 84.363 96.846 84.6134 97.5971 84.5761C102.306 84.363 106.871 83.436 111.138 81.4541C123.89 75.5245 131.406 65.5778 133.569 51.646C133.798 50.1703 133.771 50.1809 132.328 50.165C130.41 50.1437 130.655 50.4473 130.634 48.5027C130.623 47.368 130.634 47.3626 129.488 47.3626C118.92 47.3626 108.352 47.3626 97.7888 47.3626C97.0395 47.3626 96.6649 47.7515 96.6649 48.5294C96.6649 54.3525 96.6649 60.1809 96.6649 66.004V65.9987ZM33.4202 19.286C33.3988 19.5844 33.3722 19.8028 33.3722 20.0212C33.3722 22.5998 33.3882 25.1837 33.3562 27.7623C33.3456 28.4229 33.5587 28.6147 34.2085 28.6147C54.6314 28.5987 75.0542 28.5987 95.477 28.6147C96.2334 28.6147 96.4199 28.343 96.4092 27.6397C96.3773 25.2263 96.3986 22.8129 96.3932 20.3942C96.3932 19.2221 96.3932 19.2168 95.1894 19.2168C74.9317 19.2168 54.6793 19.2168 34.4216 19.2168C34.0967 19.2168 33.7717 19.2541 33.4202 19.27V19.286ZM31.918 136.648C35.8279 136.648 39.743 136.648 43.6529 136.648C44.7289 136.648 44.7342 136.648 44.7342 135.535C44.7342 133.926 44.6969 132.317 44.7502 130.708C44.7768 129.893 44.5531 129.595 43.6848 129.605C40.4675 129.653 37.2501 129.6 34.0327 129.643C33.2444 129.653 33.0579 129.392 33.0633 128.646C33.0952 125.54 33.0633 122.429 33.0899 119.323C33.0952 118.636 32.8768 118.412 32.1843 118.417C28.136 118.444 24.0823 118.449 20.034 118.417C19.2936 118.412 19.0911 118.646 19.0911 119.371C19.1125 124.81 19.1178 130.245 19.0858 135.684C19.0858 136.473 19.3522 136.664 20.0979 136.659C24.0344 136.627 27.9762 136.643 31.9127 136.643L31.918 136.648ZM75.7147 18.7959C75.9651 18.8598 76.0929 18.9237 76.2207 18.9237C82.7354 18.9291 89.25 18.9237 95.7647 18.9344C96.2334 18.9344 96.3986 18.7213 96.3986 18.2791C96.3879 16.3398 96.3879 14.3953 96.3986 12.456C96.3986 11.9339 96.1588 11.7794 95.6794 11.8007C95.1787 11.822 94.6727 11.8646 94.188 11.7741C93.9589 11.7314 93.6446 11.4331 93.602 11.204C93.5114 10.7192 93.5594 10.2131 93.5754 9.71227C93.5913 9.24344 93.3996 9.05164 92.9255 9.11025C92.1851 9.20614 91.4393 9.27008 90.6989 9.36597C86.2777 9.94668 82.1281 11.3638 78.213 13.4736C77.9733 13.6014 77.6537 13.7453 77.5631 13.9584C76.9239 15.5407 76.3326 17.1443 75.7094 18.7905L75.7147 18.7959ZM15.453 127.453C15.453 129.701 15.453 131.944 15.453 134.192C15.453 136.883 15.453 136.872 18.1909 136.659C18.665 136.622 18.8142 136.425 18.8142 135.988C18.8142 130.362 18.8088 124.73 18.8142 119.104C18.8142 118.593 18.6011 118.412 18.1163 118.433C17.5357 118.455 16.9498 118.481 16.3692 118.428C15.6074 118.353 15.4317 118.689 15.4423 119.392C15.4743 122.083 15.453 124.773 15.453 127.458V127.453ZM5.33742 127.533H5.34808C5.34808 129.914 5.33742 132.301 5.34808 134.682C5.35873 136.68 5.36938 136.68 7.3829 136.675C8.54947 136.675 8.55479 136.675 8.55479 135.46C8.55479 130.527 8.55479 125.594 8.55479 120.655C8.55479 118.412 8.55479 118.449 6.3282 118.407C5.4919 118.391 5.30546 118.689 5.31612 119.461C5.3534 122.152 5.3321 124.837 5.3321 127.527L5.33742 127.533ZM5.04978 127.623C5.04978 125.263 5.04978 122.908 5.04978 120.548C5.04978 118.407 5.04978 118.439 2.89776 118.407C2.07744 118.391 1.8697 118.678 1.87502 119.456C1.90698 124.475 1.891 129.499 1.891 134.517C1.891 136.718 1.891 136.68 4.09096 136.712C4.8953 136.723 5.07108 136.414 5.06043 135.689C5.0338 132.999 5.04978 130.308 5.04978 127.618V127.623ZM11.8894 127.623C11.8894 125.237 11.8894 122.85 11.8894 120.468C11.8894 119.108 11.2217 118.43 9.88648 118.433C8.81048 118.433 8.80515 118.433 8.80515 119.563C8.80515 124.581 8.7945 129.605 8.80515 134.624C8.8158 137.037 8.48554 136.6 10.8932 136.68C11.6496 136.707 11.9107 136.473 11.9 135.695C11.8627 133.004 11.884 130.314 11.884 127.623H11.8894ZM15.1813 127.538C15.1813 125.151 15.1813 122.765 15.1813 120.383C15.1813 118.428 15.1813 118.476 13.1944 118.417C12.3368 118.391 12.1184 118.657 12.1237 119.493C12.161 124.512 12.1397 129.536 12.1397 134.555C12.1397 136.691 12.1397 136.664 14.3024 136.68C14.9949 136.68 15.2079 136.478 15.1973 135.78C15.16 133.036 15.1813 130.287 15.1813 127.543V127.538ZM96.4678 6.37184C95.8286 6.37184 95.1947 6.38783 94.5555 6.36652C94.0654 6.35053 93.8417 6.54233 93.847 7.04313C93.8577 8.28979 93.863 9.53646 93.847 10.7831C93.8417 11.2679 94.0281 11.497 94.5289 11.4917C95.802 11.481 97.0804 11.481 98.3535 11.4917C98.8116 11.4917 99.0087 11.2999 99.0033 10.8471C98.9927 9.57375 98.9927 8.29512 99.0033 7.02182C99.0033 6.52102 98.7903 6.33455 98.2949 6.35586C97.6876 6.3825 97.0751 6.36119 96.4678 6.36652V6.37184ZM133.521 44.7254C132.908 44.7254 132.301 44.7468 131.688 44.7201C131.113 44.6988 130.9 44.9439 130.911 45.5139C130.937 46.7073 130.932 47.9007 130.911 49.0941C130.9 49.6375 131.076 49.9199 131.672 49.9092C132.892 49.8879 134.112 49.8932 135.332 49.9092C135.806 49.9092 136.062 49.7494 136.056 49.238C136.046 47.9593 136.046 46.686 136.056 45.4074C136.062 44.9013 135.822 44.7148 135.343 44.7254C134.73 44.7414 134.123 44.7254 133.51 44.7254H133.521ZM48.415 133.121C48.415 132.791 48.415 132.456 48.415 132.125C48.415 129.547 48.415 129.568 45.8635 129.616C45.1923 129.627 45.0059 129.898 45.0219 130.516C45.0538 131.736 45.0325 132.956 45.0325 134.171C45.0325 136.766 45.0325 136.75 47.6586 136.664C48.2446 136.643 48.4363 136.419 48.4203 135.865C48.3937 134.954 48.415 134.038 48.415 133.121V133.121ZM58.5305 133.153C58.5305 132.242 58.5146 131.326 58.5359 130.415C58.5519 129.866 58.3761 129.584 57.7795 129.621C57.2308 129.653 56.6715 129.653 56.1175 129.621C55.4943 129.584 55.2972 129.872 55.3079 130.463C55.3345 131.763 55.3132 133.063 55.3079 134.363C55.3079 136.734 55.3079 136.712 57.6942 136.691C58.3814 136.691 58.5519 136.419 58.5305 135.807C58.4986 134.922 58.5252 134.038 58.5252 133.148L58.5305 133.153ZM61.9663 133.185C61.9663 132.743 61.977 132.296 61.9663 131.854C61.9077 129.243 62.4404 129.685 59.6438 129.621C59.0366 129.605 58.7969 129.824 58.8129 130.442C58.8448 131.774 58.8022 133.105 58.8288 134.437C58.8821 137.107 58.3175 136.638 61.1886 136.702C61.7532 136.712 61.9929 136.515 61.977 135.929C61.9503 135.013 61.9716 134.096 61.9716 133.18L61.9663 133.185ZM48.692 133.121C48.692 133.59 48.692 134.059 48.692 134.533C48.692 136.686 48.692 136.659 50.8174 136.675C51.4832 136.675 51.7602 136.499 51.7336 135.791C51.6857 134.464 51.7389 133.137 51.7176 131.811C51.6697 129.248 52.197 129.68 49.4644 129.621C48.8997 129.611 48.6654 129.802 48.6867 130.388C48.7186 131.299 48.6973 132.21 48.6973 133.127L48.692 133.121ZM52.0212 133.1C52.0212 133.569 52.0212 134.043 52.0212 134.512C52.0212 136.734 52.0212 136.712 54.2105 136.68C54.8178 136.67 55.0522 136.478 55.0362 135.865C55.0096 134.512 55.0468 133.153 55.0202 131.8C54.9723 129.27 55.5529 129.664 52.6551 129.632C52.197 129.632 52.0053 129.824 52.0159 130.282C52.0319 131.225 52.0159 132.163 52.0159 133.105L52.0212 133.1ZM24.7855 57.7728C24.5564 58.1191 24.3274 58.3162 24.3114 58.5347C24.3007 58.6732 24.6097 58.833 24.7748 58.9822C24.9453 58.7957 25.1903 58.6306 25.2489 58.4121C25.2809 58.2843 25.0145 58.0765 24.7855 57.7781V57.7728ZM26.277 60.3993C26.0213 60.1543 25.8242 59.8772 25.7443 59.9092C25.5259 59.9998 25.3128 60.1862 25.185 60.3887C25.1477 60.4526 25.4247 60.8415 25.5152 60.8255C25.739 60.7883 25.9414 60.6018 26.2716 60.3993H26.277ZM31.6836 67.3093C31.3587 67.0908 31.1669 66.8618 30.9539 66.8458C30.826 66.8351 30.5224 67.1974 30.5597 67.2986C30.6343 67.5117 30.858 67.7408 31.0711 67.8101C31.1829 67.8474 31.396 67.5543 31.6836 67.3093V67.3093ZM32.4986 71.646C32.1897 71.4382 31.95 71.2038 31.8807 71.2464C31.657 71.3849 31.4706 71.6087 31.3267 71.8378C31.3054 71.8697 31.641 72.2373 31.7262 72.2107C31.9659 72.1201 32.163 71.9123 32.504 71.6513L32.4986 71.646ZM27.9336 50.8948C27.7258 51.2092 27.4968 51.401 27.5234 51.5608C27.5501 51.7313 27.8057 51.8698 27.9655 52.0243C28.12 51.8698 28.3757 51.7206 28.3917 51.5501C28.4077 51.3903 28.168 51.2038 27.9389 50.8948H27.9336ZM30.1868 45.0664C29.8938 44.832 29.7181 44.5869 29.5582 44.5976C29.3878 44.6136 29.1268 44.864 29.1161 45.0238C29.1055 45.173 29.3558 45.45 29.521 45.4713C29.6808 45.4926 29.8725 45.2689 30.1815 45.0611L30.1868 45.0664ZM26.9854 86.7818C26.751 87.1387 26.5167 87.3412 26.522 87.5383C26.522 87.6875 26.8256 87.9432 26.9907 87.9432C27.1505 87.9432 27.4488 87.6821 27.4488 87.533C27.4488 87.3358 27.2198 87.1387 26.9854 86.7818V86.7818ZM25.9573 75.7802C26.3036 75.9933 26.5007 76.2117 26.6658 76.1904C26.8469 76.1691 27.1292 75.924 27.1292 75.7695C27.1292 75.6044 26.8629 75.3007 26.7138 75.3007C26.5113 75.3007 26.3089 75.5351 25.952 75.7802H25.9573ZM21.9303 54.3258C21.7172 54.6189 21.4988 54.7893 21.4882 54.9705C21.4829 55.1143 21.7545 55.402 21.8611 55.386C22.0528 55.3487 22.3192 55.1569 22.3565 54.9865C22.3884 54.8426 22.1381 54.6348 21.925 54.3258H21.9303ZM25.2276 66.4995C24.9133 66.2597 24.7322 66.0147 24.5724 66.0253C24.3966 66.0413 24.2368 66.2864 24.0663 66.4355C24.2155 66.5954 24.3433 66.8564 24.5085 66.8831C24.6789 66.9097 24.8813 66.6966 25.2223 66.5048L25.2276 66.4995ZM22.7453 69.2219C22.415 69.0194 22.2126 68.801 22.0422 68.8223C21.877 68.8436 21.7492 69.1153 21.6054 69.2805C21.7705 69.4243 21.9303 69.6747 22.1061 69.6854C22.2712 69.6961 22.447 69.451 22.7453 69.2219ZM29.7394 72.4611C29.5156 72.7488 29.2653 72.9353 29.2813 73.1004C29.2919 73.2602 29.5689 73.5266 29.7287 73.5213C29.8938 73.5213 30.1602 73.2656 30.1815 73.1004C30.2028 72.9459 29.9524 72.7541 29.7394 72.4664V72.4611ZM26.9268 80.2021C27.1079 79.8452 27.321 79.6214 27.2784 79.4669C27.2304 79.3018 26.9588 79.1313 26.7617 79.0993C26.6711 79.0833 26.4155 79.403 26.4314 79.5415C26.4527 79.728 26.6765 79.8878 26.9268 80.2021V80.2021ZM12.8322 59.0941C12.5978 59.4137 12.3794 59.5842 12.3634 59.7707C12.3528 59.9039 12.6404 60.2022 12.7416 60.1809C12.9387 60.1436 13.1944 59.9518 13.2424 59.776C13.2796 59.6322 13.0399 59.4191 12.8322 59.0941V59.0941ZM30.6875 53.4148C30.3945 53.2177 30.2188 53.0099 30.027 52.9993C29.8885 52.9886 29.734 53.2337 29.5849 53.3615C29.7607 53.532 29.9098 53.7558 30.1176 53.841C30.2081 53.8783 30.4159 53.6226 30.6822 53.4095L30.6875 53.4148ZM19.1178 49.5789C19.3362 49.2699 19.5492 49.0994 19.5546 48.9183C19.5546 48.7744 19.2989 48.4921 19.1817 48.5081C19.0006 48.5294 18.7289 48.7318 18.7076 48.8863C18.6863 49.0515 18.91 49.2486 19.1178 49.5789Z" fill="#1CA0F0"/>
<path d="M141.404 135.476C141.323 134.478 140.831 133.977 139.929 133.974C129.467 133.974 119.011 133.979 108.549 133.963C107.787 133.963 107.217 134.006 107.313 134.997C107.324 135.135 106.994 135.434 106.807 135.444C105.976 135.492 105.14 135.492 104.314 135.444C104.133 135.434 103.824 135.141 103.819 134.97C103.771 133.979 103.797 132.988 103.797 132.04C103.92 131.965 103.968 131.917 104.016 131.912C104.943 131.823 105.406 131.291 105.406 130.314C105.406 119.909 105.401 109.504 105.422 99.0939C105.422 98.2948 105.31 97.778 104.351 97.9325C103.915 98.0018 103.771 97.7567 103.787 97.3412C103.808 96.5633 103.808 95.7855 103.787 95.013C103.776 94.5282 103.936 94.3151 104.458 94.331C105.369 94.363 106.28 94.3417 107.175 94.3417C107.244 94.4642 107.308 94.5335 107.313 94.6081C107.423 95.5493 107.952 96.0199 108.901 96.0199C119.112 96.0199 129.318 96.0199 139.529 96.0199C140.637 96.0199 141.273 95.4765 141.436 94.3896H144.968C144.968 95.4392 144.995 96.51 144.936 97.5702C144.931 97.7034 144.494 97.9272 144.26 97.9219C143.599 97.9005 143.322 98.0977 143.322 98.8169C143.338 109.531 143.338 120.239 143.322 130.953C143.322 131.614 143.509 131.965 144.217 131.875C144.776 131.806 145.027 132.024 144.989 132.621C144.947 133.34 144.963 134.064 144.989 134.784C145.005 135.263 144.862 135.503 144.334 135.487C143.37 135.46 142.406 135.482 141.404 135.482V135.476ZM141.341 132.003C141.559 131.949 141.665 131.907 141.772 131.901C142.621 131.827 143.045 131.372 143.045 130.538C143.045 120.213 143.045 109.893 143.045 99.5681C143.045 98.5665 142.55 98.0106 141.559 97.9005C141.511 97.9005 141.468 97.8473 141.383 97.794L141.303 96.3449C141.032 96.3236 140.84 96.2916 140.648 96.2916C129.829 96.2916 119.005 96.2916 108.187 96.2809C107.595 96.2809 107.276 96.4461 107.35 97.0801C107.42 97.6928 107.233 98.0497 106.535 97.9485C105.811 97.8419 105.657 98.2309 105.657 98.8808C105.667 109.563 105.673 120.25 105.657 130.932C105.657 131.651 105.875 131.987 106.61 131.885C107.196 131.806 107.446 132.056 107.35 132.637C107.212 133.51 107.617 133.686 108.432 133.686C119.059 133.66 129.686 133.67 140.312 133.67C140.632 133.67 140.957 133.67 141.346 133.67V132.008L141.341 132.003Z" fill="#1CA0F0"/>
<path d="M86.672 48.9503C86.672 49.3232 86.672 49.6216 86.672 49.9146C86.672 63.2603 86.6666 76.6114 86.6933 89.9571C86.6933 90.7775 86.5121 91.0492 85.6492 91.0439C71.8049 91.0173 57.9607 91.0173 44.1164 91.0439C43.2641 91.0439 43.051 90.7882 43.051 89.9571C43.0777 76.638 43.067 63.3189 43.0723 49.9998C43.0723 48.9077 43.083 48.9023 44.1643 48.9023C58.0086 48.9023 71.8529 48.9023 85.6972 48.9023C85.9955 48.9023 86.2884 48.929 86.672 48.9503ZM43.7968 49.2486C44.127 49.6269 44.2922 49.8347 44.4839 50.0211C51.1211 56.4409 57.7582 62.8607 64.3847 69.2859C64.7683 69.6588 65.008 69.6748 65.4075 69.2912C72.0766 62.8234 78.7564 56.3717 85.4308 49.9146C85.5906 49.7601 85.7078 49.5523 85.9422 49.2433H43.7968V49.2486ZM64.683 69.9678C57.6144 63.1324 50.6204 56.3823 43.6316 49.6269L43.4346 49.7921V90.2075L43.6316 90.3247C50.6257 83.5586 57.6197 76.7978 64.6777 69.9678H64.683ZM86.2831 90.4312V49.5097C79.1346 56.4196 72.1725 63.1538 65.1198 69.9731C72.1725 76.7872 79.1505 83.5373 86.2831 90.4312V90.4312ZM86.0008 90.655C85.6386 90.2661 85.4628 90.0636 85.271 89.8771C78.6924 83.516 72.1086 77.1601 65.546 70.7776C65.0506 70.2928 64.7842 70.2821 64.2835 70.7669C57.7369 77.1228 51.1744 83.4574 44.6171 89.8026C44.3934 90.021 44.191 90.2661 43.8394 90.655H86.0008V90.655Z" fill="#1CA0F0"/>
<path d="M88.8398 120.474C88.8291 122.37 87.4016 123.777 85.5106 123.761C83.6515 123.745 82.2133 122.269 82.2346 120.404C82.2559 118.572 83.7687 117.117 85.6224 117.149C87.4389 117.181 88.8558 118.641 88.8398 120.479V120.474ZM85.5479 123.494C87.1779 123.494 88.5628 122.115 88.5681 120.479C88.5735 118.833 87.2205 117.453 85.5798 117.432C83.9179 117.416 82.4956 118.827 82.5116 120.49C82.5276 122.115 83.9179 123.494 85.5532 123.494H85.5479Z" fill="#1CA0F0"/>
<path d="M75.6722 120.468C75.6615 122.333 74.1967 123.771 72.327 123.761C70.4519 123.75 69.035 122.29 69.0616 120.404C69.0936 118.561 70.5159 117.149 72.3483 117.144C74.186 117.144 75.6828 118.641 75.6722 120.468ZM69.328 120.426C69.3173 122.067 70.665 123.457 72.3003 123.494C73.9623 123.532 75.3845 122.131 75.3899 120.458C75.3899 118.827 74.0155 117.448 72.3749 117.437C70.7343 117.426 69.344 118.795 69.3333 120.431L69.328 120.426Z" fill="#1CA0F0"/>
<path d="M55.8618 120.436C55.8724 118.566 57.3266 117.133 59.207 117.149C60.9968 117.165 62.4936 118.662 62.4989 120.442C62.5043 122.306 60.9755 123.793 59.0738 123.761C57.2414 123.734 55.8511 122.296 55.8565 120.436H55.8618ZM56.1707 120.42C56.1601 122.109 57.4545 123.463 59.1058 123.495C60.7784 123.526 62.1793 122.152 62.1953 120.463C62.206 118.828 60.8423 117.453 59.1963 117.432C57.545 117.416 56.1867 118.753 56.1761 120.415L56.1707 120.42Z" fill="#1CA0F0"/>
<path d="M49.2565 120.474C49.2459 122.376 47.8343 123.777 45.9326 123.761C44.1162 123.745 42.6513 122.285 42.646 120.484C42.646 118.63 44.1109 117.155 45.9592 117.149C47.8449 117.144 49.2618 118.577 49.2565 120.474ZM45.9539 123.495C47.5733 123.51 48.9742 122.136 49.0062 120.5C49.0381 118.886 47.6532 117.464 46.0232 117.432C44.3985 117.4 42.9656 118.769 42.9283 120.383C42.891 122.051 44.276 123.473 45.9486 123.489L45.9539 123.495Z" fill="#1CA0F0"/>
<path d="M37.0051 22.3867C37.1329 22.4773 37.2661 22.5519 37.3833 22.6531C38.1433 23.296 38.9103 23.2871 39.6845 22.6265C39.7857 22.5412 39.8975 22.4666 40.1426 22.5252L38.6511 24.0702L40.1053 25.2317L39.9189 25.4448C39.6951 25.2477 39.4394 25.0825 39.2583 24.8534C38.7576 24.2301 38.2835 24.1182 37.7402 24.8108C37.5591 25.0399 37.2874 25.1997 36.9199 25.269C37.1809 24.9973 37.4099 24.6883 37.7029 24.4592C38.2249 24.0596 38.1717 23.7133 37.6923 23.3457C37.3886 23.1113 37.0957 22.8715 36.7974 22.6318L37.0104 22.392L37.0051 22.3867Z" fill="#1CA0F0"/>
<path d="M124.694 103.255C131.625 103.234 137.116 108.758 137.191 115.716C137.266 122.509 131.667 128.236 124.844 128.247C117.897 128.263 112.246 122.786 112.219 115.988C112.192 108.833 117.636 103.276 124.694 103.25V103.255ZM125.014 120.293C127.022 120.127 128.626 119.094 129.52 117.091C129.648 116.803 129.467 116.371 129.43 116.004C129.148 116.206 128.764 116.345 128.599 116.617C126.665 119.739 122.702 119.723 120.763 116.59C120.625 116.366 120.284 116.26 120.039 116.1C120.012 116.398 119.879 116.739 119.97 116.995C120.646 118.87 122.819 120.319 125.009 120.298L125.014 120.293ZM128.365 112.829C128.375 112.259 127.832 111.688 127.273 111.678C126.719 111.667 126.159 112.227 126.149 112.802C126.138 113.393 126.66 113.937 127.241 113.947C127.811 113.958 128.354 113.42 128.359 112.829H128.365ZM121.557 114.059C122.185 114.081 122.681 113.628 122.708 113.004C122.729 112.392 122.26 111.875 121.653 111.843C121.062 111.811 120.529 112.312 120.502 112.909C120.476 113.521 120.95 114.033 121.562 114.054L121.557 114.059Z" fill="#1CA0F0"/>
<path d="M124.705 121.736C127.862 121.736 130.421 120.129 130.421 118.146C130.421 116.162 127.862 114.555 124.705 114.555C121.548 114.555 118.99 116.162 118.99 118.146C118.99 120.129 121.548 121.736 124.705 121.736Z" fill="#1CA0F0"/>
<path d="M120.518 120.447C121.29 118.923 122.867 117.879 124.694 117.879C126.633 117.879 128.29 119.057 129.004 120.735" stroke="white" stroke-width="3" stroke-miterlimit="10" stroke-linecap="round"/>
</g>
<defs>
<clipPath id="clip0_2439_5341">
<rect width="145" height="137" fill="white"/>
</clipPath>
</defs>
</svg>
