<svg width="58" height="64" viewBox="0 0 58 64" fill="none" xmlns="http://www.w3.org/2000/svg">
<path d="M28.9892 0C29.9252 0.512302 30.8263 0.796436 31.4445 1.37762C37.2084 6.78908 44.1999 9.695 51.8488 11.2707C53.0198 11.5117 54.1996 11.6839 55.375 11.9164C57.0902 12.2565 58.2743 13.8279 57.9435 15.4724C55.7494 26.4546 52.5235 37.0924 46.986 46.9295C43.7471 52.6853 39.7856 57.86 34.2742 61.7088C33.212 62.4492 32.0714 63.0864 30.9439 63.7321C29.6466 64.4726 28.3362 64.4252 27.0084 63.7321C22.1239 61.1965 18.2625 57.5156 15.0018 53.1804C10.0607 46.6109 6.65203 39.2579 4.21414 31.4958C2.6034 26.3857 1.42798 21.1336 0.130679 15.9244C-0.396079 13.802 0.727091 12.2393 2.89072 11.8777C9.15087 10.8315 15.1977 9.13965 20.622 5.76878C22.6333 4.51601 24.4225 2.91453 26.3511 1.5283C27.1434 0.960029 28.0445 0.542438 28.9935 0L28.9892 0ZM29.0501 15.4336C28.1446 15.4336 27.2348 15.481 26.3336 15.4207C25.3541 15.3562 24.9406 15.679 25.045 16.7036C25.2018 18.2707 25.2627 19.8463 25.3628 21.4177C25.6937 26.5622 26.042 31.7111 26.3423 36.8599C26.3902 37.6693 26.7429 37.9147 27.496 37.8889C28.4711 37.8587 29.455 37.8415 30.4302 37.8889C31.34 37.9405 31.6056 37.5401 31.6491 36.692C31.7797 34.2597 32.0061 31.8359 32.1715 29.4036C32.4545 25.1502 32.707 20.8968 33.003 16.6477C33.064 15.7781 32.8115 15.3734 31.8755 15.4207C30.9352 15.4681 29.9905 15.4336 29.0501 15.4293V15.4336ZM28.9935 41.6601C26.8125 41.6558 25.1103 43.3003 25.0886 45.4399C25.0712 47.5795 26.7429 49.2757 28.9108 49.3102C31.0875 49.3489 32.8942 47.5968 32.8855 45.4571C32.8768 43.3218 31.1789 41.6644 28.9935 41.6558V41.6601Z" fill="#CA333E"/>
</svg>
