<svg width="72" height="72" viewBox="0 0 72 72" fill="none" xmlns="http://www.w3.org/2000/svg">
<path d="M34.6875 0C35.5622 0 36.4378 0 37.3125 0C37.4775 0.0346875 37.6416 0.091875 37.8075 0.100313C41.7844 0.301875 45.6197 1.13813 49.3247 2.6025C61.8947 7.57031 70.7156 19.4606 71.8078 32.9278C71.8556 33.5156 71.9353 34.1006 72 34.6875V37.3125C71.9644 37.5253 71.9212 37.7381 71.8941 37.9519C71.6812 39.6375 71.565 41.3419 71.2453 43.0059C70.0669 49.1288 67.4381 54.5841 63.3628 59.2969C56.9766 66.6834 48.9019 70.8666 39.165 71.8013C38.5472 71.8603 37.9303 71.9325 37.3125 71.9991H34.6875C34.4897 71.9644 34.2937 71.9231 34.095 71.8959C32.1337 71.6325 30.1425 71.5097 28.2159 71.0888C12.8944 67.7447 1.52813 54.7237 0.19125 39.0722C0.141562 38.4844 0.0646875 37.8994 0 37.3125C0 36.4378 0 35.5622 0 34.6875C0.03375 34.5216 0.0825 34.3566 0.0984375 34.1878C0.16875 33.4266 0.21375 32.6634 0.29625 31.9031C0.849375 26.8312 2.38219 22.0622 5.05313 17.7263C11.4563 7.32938 20.7497 1.4475 32.9306 0.195937C33.5166 0.135937 34.1025 0.065625 34.6875 0ZM34.5544 60.5822C38.0756 60.5719 40.3819 60.2869 44.01 59.1459C50.4816 57.1116 56.1647 53.7787 60.6938 48.6497C62.6484 46.4353 64.1578 43.9481 64.9153 41.0625C65.0672 40.4841 65.1928 39.8494 65.1131 39.27C64.8731 37.5206 63.4772 36.3769 61.6912 36.3666C59.8162 36.3553 57.9412 36.3544 56.0662 36.3712C55.6659 36.375 55.4944 36.2944 55.4812 35.8397C55.41 33.3263 54.9769 30.8719 54.1153 28.5056C50.2519 17.895 39.5016 11.4722 28.3472 13.23C21.1125 14.37 15.5156 18.1359 11.7122 24.3947C8.68406 29.3775 7.66594 34.8056 8.80031 40.5591C9.71531 45.1978 11.9812 49.1541 15.285 52.4906C20.58 57.8381 26.9784 60.6328 34.5534 60.5813L34.5544 60.5822Z" fill="url(#paint0_linear_2485_5523)"/>
<path d="M34.5545 60.5831C26.9795 60.6337 20.581 57.839 15.286 52.4924C11.9823 49.1559 9.71541 45.2006 8.80135 40.5609C7.66697 34.8074 8.6851 29.3793 11.7132 24.3965C15.5167 18.1377 21.1135 14.3718 28.3482 13.2318C39.5026 11.474 50.2529 17.8968 54.1163 28.5074C54.9779 30.8746 55.411 33.328 55.4823 35.8415C55.4954 36.2962 55.666 36.3759 56.0673 36.373C57.9423 36.3562 59.8173 36.3571 61.6923 36.3684C63.4792 36.3787 64.8742 37.5224 65.1142 39.2718C65.1938 39.8512 65.0682 40.4859 64.9163 41.0643C64.1588 43.9499 62.6504 46.4371 60.6948 48.6515C56.1657 53.7805 50.4826 57.1134 44.011 59.1477C40.382 60.2887 38.0767 60.5737 34.5554 60.584L34.5545 60.5831ZM33.3779 34.4812C33.3779 33.6534 33.3854 32.8265 33.376 31.9987C33.3563 30.1977 32.041 28.8627 30.2907 28.858C28.562 28.8534 27.2157 30.2221 27.2073 32.0062C27.1998 33.6449 27.2007 35.2846 27.2073 36.9234C27.2148 38.7084 28.5498 40.0827 30.2748 40.093C32.0092 40.1034 33.3535 38.7515 33.3751 36.9618C33.3854 36.1349 33.377 35.3071 33.377 34.4793L33.3779 34.4812ZM22.4223 34.5018H22.4204C22.4204 33.6899 22.4288 32.878 22.4157 32.0671C22.411 31.7577 22.3951 31.438 22.3154 31.1409C21.9076 29.608 20.5013 28.6949 18.887 28.8899C17.431 29.0662 16.2751 30.3534 16.2507 31.8927C16.2245 33.5624 16.2413 35.233 16.246 36.9027C16.2517 38.714 17.5923 40.0912 19.3435 40.093C21.0648 40.0949 22.3988 38.7299 22.4204 36.9365C22.4298 36.1246 22.4223 35.3127 22.4223 34.5018V34.5018Z" fill="url(#paint1_linear_2485_5523)"/>
<path d="M33.3769 34.4816C33.3769 35.3094 33.3853 36.1363 33.375 36.9641C33.3534 38.7529 32.0091 40.1057 30.2747 40.0954C28.5487 40.0851 27.2137 38.7107 27.2072 36.9257C27.2006 35.2869 27.1997 33.6472 27.2072 32.0085C27.2156 30.2244 28.5619 28.8557 30.2906 28.8604C32.0409 28.8651 33.3572 30.2001 33.3759 32.001C33.3844 32.8279 33.3778 33.6557 33.3769 34.4835V34.4816Z" fill="#5436CF"/>
<path d="M22.4224 34.5012C22.4224 35.3131 22.4299 36.125 22.4205 36.9359C22.3999 38.7294 21.0658 40.0944 19.3437 40.0925C17.5924 40.0906 16.2508 38.7125 16.2461 36.9022C16.2415 35.2325 16.2236 33.5619 16.2508 31.8922C16.2752 30.3528 17.4312 29.0656 18.8871 28.8894C20.5024 28.6944 21.9077 29.6075 22.3155 31.1403C22.3943 31.4375 22.4102 31.7562 22.4158 32.0665C22.429 32.8784 22.4205 33.6894 22.4205 34.5012H22.4224V34.5012Z" fill="#5436CF"/>
<defs>
<linearGradient id="paint0_linear_2485_5523" x1="57.6094" y1="1.71796e-06" x2="15.375" y2="67.0781" gradientUnits="userSpaceOnUse">
<stop stop-color="#4E41BC"/>
<stop offset="1" stop-color="#5522EE"/>
</linearGradient>
<linearGradient id="paint1_linear_2485_5523" x1="36.7446" y1="12.9434" x2="36.7446" y2="60.584" gradientUnits="userSpaceOnUse">
<stop stop-color="white"/>
<stop offset="1" stop-color="#E2DAFC"/>
</linearGradient>
</defs>
</svg>
