<svg width="80" height="79" viewBox="0 0 80 79" fill="none" xmlns="http://www.w3.org/2000/svg">
<path fill-rule="evenodd" clip-rule="evenodd" d="M39.5234 79C49.9995 79 60.0465 74.8384 67.4542 67.4307C74.8618 60.023 79.0234 49.9761 79.0234 39.5C79.0234 29.0239 74.8618 18.977 67.4542 11.5693C60.0465 4.1616 49.9995 0 39.5234 0C29.0474 0 19.0004 4.1616 11.5927 11.5693C4.18503 18.977 0.0234375 29.0239 0.0234375 39.5C0.0234375 49.9761 4.18503 60.023 11.5927 67.4307C19.0004 74.8384 29.0474 79 39.5234 79ZM57.8267 33.1158C58.7262 32.1846 59.2238 30.9374 59.2126 29.6428C59.2013 28.3482 58.6821 27.1098 57.7666 26.1943C56.8512 25.2789 55.6128 24.7596 54.3182 24.7484C53.0236 24.7371 51.7764 25.2348 50.8451 26.1342L34.5859 42.3934L28.2017 36.0092C27.2705 35.1098 26.0233 34.6121 24.7287 34.6234C23.4341 34.6346 22.1957 35.1539 21.2803 36.0693C20.3648 36.9848 19.8455 38.2232 19.8343 39.5178C19.823 40.8124 20.3207 42.0596 21.2201 42.9908L31.0951 52.8658C32.021 53.7915 33.2767 54.3114 34.5859 54.3114C35.8952 54.3114 37.1508 53.7915 38.0767 52.8658L57.8267 33.1158Z" fill="#6CAA6E"/>
</svg>
