<svg width="65" height="63" viewBox="0 0 65 63" fill="none" xmlns="http://www.w3.org/2000/svg">
<path d="M41.708 56.4508C42.8762 58.4598 44.013 60.4178 45.1755 62.4155C45.3272 62.6737 45.1383 63 44.8376 63C39.5977 63 5.60974 63 0.389861 63C0.0920725 63 -0.0969085 62.6793 0.0519856 62.4211C3.79438 56.0053 7.53391 49.5838 11.2964 43.1794C11.6027 42.6572 11.6428 42.2798 11.325 41.7237C5.47517 31.426 7.06719 17.9361 15.1934 9.28137C21.8163 2.22993 30.0312 -0.837513 39.6807 0.195374C46.8219 0.958688 52.7834 4.16518 57.5824 9.46865C61.3305 13.6116 63.6584 18.4355 64.4659 23.9347C65.4594 30.6996 64.2483 37.0672 60.6175 42.9155C56.7692 49.1185 51.2429 53.1734 44.2707 55.33C44.0874 55.3867 43.8984 55.435 43.7095 55.4775C43.0767 55.6166 42.5727 55.7329 41.9571 55.8748C41.7022 55.9344 41.5763 56.2238 41.708 56.448V56.4508ZM21.9108 24.9222C22.2172 24.3973 22.9845 24.3944 23.2909 24.9194L23.2966 24.9307C28.6196 34.048 33.9397 43.1652 39.257 52.2852C39.4631 52.6399 39.6435 52.8669 40.1303 52.7932C45.4046 51.9674 49.9802 49.7257 53.7942 46.0453C57.8887 42.0926 60.3541 37.2828 61.1644 31.6559C61.823 27.0731 61.2417 22.6266 59.3748 18.4099C56.7406 12.4566 52.3854 8.11512 46.3781 5.44494C43.154 4.01195 39.7494 3.32809 36.2361 3.33376C32.9948 3.33944 29.8423 3.97222 26.83 5.19806C22.7956 6.8382 19.3939 9.32961 16.7081 12.7291C13.189 17.1841 11.3164 22.235 11.2362 27.9272C11.1875 31.5225 11.912 34.9305 13.3837 38.2958C13.5126 38.591 13.922 38.6165 14.0853 38.3384C16.7052 33.8493 19.2851 29.4227 21.9136 24.9222H21.9108ZM20.6137 36.7635V51.5616C20.6137 51.7744 20.7884 51.9504 21.006 51.9504H24.2358C24.4506 51.9504 24.6281 51.7773 24.6281 51.5616V36.7635C24.6281 36.5507 24.4534 36.3748 24.2358 36.3748H21.006C20.7912 36.3748 20.6137 36.5479 20.6137 36.7635ZM20.6309 54.7057V57.6313C20.6309 57.8441 20.8055 58.02 21.0231 58.02H24.2129C24.4277 58.02 24.6052 57.8469 24.6052 57.6313V54.7057C24.6052 54.4929 24.4305 54.3169 24.2129 54.3169H21.0231C20.8084 54.3169 20.6309 54.49 20.6309 54.7057Z" fill="#9C5A61"/>
<path d="M33.8818 12.1067H37.567C37.567 12.4132 37.567 12.6912 37.567 12.9693C37.567 17.6968 37.63 22.4242 37.5326 27.146C37.5011 28.6783 37.9421 29.8984 38.7868 31.1243C40.4561 33.5476 42.0252 36.039 43.6315 38.5021C43.7718 38.7177 43.8864 38.9476 44.0524 39.237C43.076 39.9521 42.1111 40.6558 41.0975 41.3992C40.2442 40.1025 39.4196 38.8454 38.592 37.5883C37.1546 35.4034 35.7001 33.2298 34.2942 31.0278C34.0565 30.6561 33.9019 30.1652 33.9019 29.7254C33.8761 24.1012 33.8847 18.4771 33.8847 12.853V12.1039L33.8818 12.1067Z" fill="#9C5A61"/>
</svg>
