<svg width="43" height="42" viewBox="0 0 43 42" fill="none" xmlns="http://www.w3.org/2000/svg">
<g clip-path="url(#clip0_509_7221)">
<path d="M13.0504 41.8494C9.81706 41.7075 7.06156 40.4391 4.66516 38.312C2.07184 36.0127 0.670196 33.0733 0.0548059 29.7154C0.0113666 29.4808 0.0215024 29.2361 0.0215024 28.9958C0.0186065 23.883 -0.0320727 18.7687 0.0330862 13.6574C0.0895573 9.13388 2.06315 5.51104 5.63096 2.79174C8.1765 0.8529 11.1029 -0.021678 14.3145 4.16501e-05C18.6323 0.0304491 22.9502 0.0333451 27.2666 4.16501e-05C31.0849 -0.0289179 34.4254 1.12802 37.2663 3.72568C39.7163 5.96715 41.2439 8.67776 41.7145 11.9719C41.7652 12.3267 41.813 12.6829 41.8622 13.0376C41.9679 13.2157 41.9259 13.4126 41.9259 13.6023C41.9288 18.4835 41.9288 23.366 41.9259 28.2472C41.9259 28.4368 41.9679 28.6338 41.8622 28.8119C41.6552 31.6369 40.6865 34.1781 38.9518 36.4109C36.609 39.4255 33.4987 41.1646 29.7629 41.8263C29.5052 41.8712 29.2344 41.8422 28.9709 41.848C28.7928 41.9552 28.5959 41.9132 28.4062 41.9132C23.4758 41.9161 18.5455 41.9161 13.6137 41.9132C13.424 41.9132 13.227 41.9552 13.0489 41.8494H13.0504Z" fill="#DEE4EB"/>
<path d="M13.0508 41.8496C18.3576 41.8496 23.6659 41.8496 28.9727 41.8496C28.7816 42.0668 28.5253 41.9872 28.2951 41.9872C23.44 41.9915 18.5849 41.9915 13.7284 41.9872C13.4982 41.9872 13.2419 42.0668 13.0508 41.8511V41.8496Z" fill="#FDFDFD"/>
<path d="M41.8638 28.8133C41.8638 23.5557 41.8638 18.2967 41.8638 13.0391C42.0795 13.2302 42.0013 13.4865 42.0013 13.7167C42.0057 18.5225 42.0057 23.3298 42.0013 28.1357C42.0013 28.3659 42.081 28.6222 41.8638 28.8133Z" fill="#FDFDFD"/>
<path d="M41.4268 20.9508C41.4268 23.3631 41.4514 25.7754 41.421 28.1863C41.3805 31.3834 40.2699 34.1751 38.1993 36.6179C35.8637 39.3734 32.8925 40.9024 29.3478 41.3904C29.1103 41.4237 28.8671 41.4107 28.6253 41.4107C23.6326 41.4107 18.6386 41.4483 13.646 41.3991C10.2591 41.3658 7.3516 40.0785 4.85529 37.7936C2.60514 35.7332 1.25273 33.1948 0.666296 30.2294C0.54177 29.5981 0.463579 28.945 0.462131 28.3021C0.446204 23.3341 0.327469 18.3603 0.493987 13.3981C0.625753 9.44804 2.34884 6.14231 5.43159 3.59242C7.28934 2.05612 9.40483 1.08597 11.7679 0.660267C12.4021 0.545877 13.0407 0.437278 13.6952 0.438726C18.5445 0.447414 23.3937 0.377911 28.2401 0.466238C31.6023 0.527053 34.5417 1.7839 37.0395 4.07749C39.5242 6.35805 40.9085 9.19609 41.3863 12.4888C41.5137 13.3634 41.4254 14.2698 41.4268 15.1618C41.4297 17.0919 41.4268 19.0206 41.4268 20.9508V20.9508Z" fill="#3375BA"/>
<path d="M32.0146 15.9147C31.8394 18.828 31.7076 21.737 31.153 24.6127C30.584 27.5724 29.0752 29.7863 26.34 31.1561C24.7906 31.9322 23.2833 32.7967 21.873 33.816C21.398 34.1592 20.8449 34.1882 20.3786 33.8522C18.7106 32.6504 16.8789 31.7295 15.1008 30.7174C12.6595 29.3288 11.5315 27.1047 11.0131 24.4636C10.5816 22.2568 10.4296 20.0212 10.3109 17.784C10.2327 16.2912 10.2052 14.7969 10.1661 13.3026C10.1299 11.9154 10.5787 11.439 11.9398 11.4549C15.0038 11.4897 17.7998 10.7309 20.2092 8.76025C20.7942 8.28242 21.4053 8.2969 21.9888 8.77184C24.4011 10.7324 27.1957 11.4984 30.2611 11.4549C31.6005 11.4361 32.0247 11.8922 32.0146 13.2359C32.0073 14.1279 32.0146 15.0199 32.0146 15.9118V15.9147Z" fill="#FEFEFE"/>
<path d="M29.3737 16.5617C29.171 19.3056 29.0624 22.0452 28.4108 24.7341C27.988 26.4746 27.0512 27.7763 25.4599 28.6292C24.0814 29.3676 22.6913 30.0916 21.3911 30.9691C21.1869 31.1067 21.0276 31.1356 20.8104 30.9865C19.5738 30.1452 18.2707 29.4125 16.9313 28.7551C14.7492 27.6851 13.8847 25.7911 13.5112 23.554C13.0116 20.5495 12.9247 17.5145 12.8321 14.481C12.8219 14.1523 12.9595 14.0712 13.2534 14.0553C15.9785 13.9076 18.5067 13.1445 20.7757 11.601C21.016 11.4373 21.1883 11.4562 21.4186 11.6111C23.6948 13.1387 26.2186 13.9148 28.9451 14.0538C29.2912 14.0712 29.3955 14.1972 29.381 14.5389C29.3549 15.2122 29.3737 15.887 29.3737 16.5603V16.5617Z" fill="#3375BA"/>
</g>
<defs>
<clipPath id="clip0_509_7221">
<rect width="42.0145" height="42" fill="white"/>
</clipPath>
</defs>
</svg>
