<svg width="25" height="25" viewBox="0 0 25 25" fill="none" xmlns="http://www.w3.org/2000/svg">
<path d="M15.6309 7.03467L17.3501 8.75391L13.9116 12.1924L17.3501 15.6309L15.6309 17.3501L12.1924 13.9116L8.75391 17.3501L7.03467 15.6309L10.4731 12.1924L7.03467 8.75391L8.7539 7.03467L12.1924 10.4731L15.6309 7.03467ZM20.7886 3.59619C25.5337 8.34129 25.5337 16.0435 20.7886 20.7886C16.0435 25.5337 8.34129 25.5337 3.59619 20.7886C-1.14891 16.0435 -1.14891 8.34129 3.59619 3.59619C8.34129 -1.1489 16.0435 -1.14891 20.7886 3.59619ZM5.31543 19.0693C9.10635 22.8603 15.2784 22.8603 19.0693 19.0693C22.8603 15.2784 22.8603 9.10635 19.0693 5.31543C15.2784 1.52451 9.10635 1.52451 5.31543 5.31543C1.52451 9.10635 1.52451 15.2784 5.31543 19.0693Z" fill="#2563EB"/>
</svg>
