<svg width="23" height="15" viewBox="0 0 23 15" fill="none" xmlns="http://www.w3.org/2000/svg">
<path d="M23 7.649C23.0097 10.6047 21.1245 13.315 18.1468 14.4591C16.0933 15.2476 14.0604 15.1897 12.0997 14.1849C11.6489 13.9535 11.3544 13.9524 10.909 14.1859C7.54519 15.946 3.41778 14.6498 1.33737 11.7327C-0.814233 8.71492 -0.325674 4.42446 2.48596 1.99481C4.38735 0.352544 6.58748 -0.305219 9.08851 0.158643C9.88013 0.305408 10.6243 0.597866 11.3091 1.02102C11.4623 1.11529 11.5647 1.10458 11.7179 1.01888C13.9169 -0.215232 16.1893 -0.320217 18.4973 0.664285C20.321 1.44203 21.6045 2.7897 22.4015 4.58194C22.8124 5.50431 23.0033 6.48453 23 7.65007V7.649ZM13.6204 7.50224C13.6117 4.04737 11.0891 1.50631 7.52254 1.4581C4.1943 1.41311 1.46463 4.17271 1.456 7.49367C1.44737 10.8039 4.17705 13.5742 7.51283 13.5389C11.0762 13.5003 13.6042 10.9539 13.6204 7.50331V7.50224ZM17.5439 6.7802C17.3541 6.53595 17.1762 6.33562 17.0306 6.11494C16.8095 5.77641 16.8839 5.38325 17.188 5.15936C17.5073 4.92368 17.9149 4.96546 18.1748 5.27934C18.6483 5.8514 19.1164 6.42775 19.578 7.00945C19.826 7.32226 19.8433 7.64043 19.606 7.94467C19.1272 8.55744 18.6397 9.16593 18.1349 9.75727C17.806 10.1429 17.1826 10.0229 16.9723 9.56337C16.83 9.25163 16.9324 8.99131 17.1255 8.74492C17.2581 8.57673 17.3929 8.40961 17.5461 8.21785H15.0752C14.8498 10.0487 14.0981 11.6191 12.7586 12.9047C14.948 14.0488 18.149 13.7563 20.1539 11.3642C22.0596 9.09094 22.0833 5.64357 19.95 3.41318C17.9074 1.27705 14.7862 0.93746 12.7597 2.09872C14.1089 3.37675 14.8466 4.95474 15.0763 6.78127H17.5428L17.5439 6.7802Z" fill="#5039E4"/>
<path d="M6.37287 3.92517C6.48395 3.11421 6.65112 2.8796 7.13321 2.88174C7.57863 2.88281 7.75981 3.13456 7.87305 3.93481C8.20523 3.93481 8.54496 3.92409 8.88253 3.93695C9.4358 3.95945 9.74317 4.38689 9.57816 4.88503C9.48325 5.16892 9.20931 5.35425 8.86851 5.35532C8.18582 5.35746 7.50205 5.34782 6.81936 5.35853C6.19599 5.36925 5.85627 5.96059 6.17874 6.46302C6.33943 6.7137 6.59504 6.77797 6.87652 6.7919C7.2788 6.81225 7.69402 6.78761 8.07905 6.88082C8.97312 7.09828 9.58571 7.93495 9.6159 8.88196C9.64395 9.78611 9.0745 10.6121 8.20739 10.9217C8.09091 10.9634 7.97335 11.002 7.86011 11.0406C7.79109 11.8248 7.61098 12.0947 7.15262 12.1129C6.68347 12.1311 6.49797 11.8912 6.35885 11.0609C6.05363 11.0609 5.74195 11.0641 5.43026 11.0609C4.94494 11.0545 4.60413 10.746 4.61492 10.3282C4.62463 9.9136 4.95357 9.63935 5.44105 9.63828C6.11511 9.63828 6.78917 9.64364 7.46323 9.63506C7.81158 9.63078 8.09199 9.41331 8.16748 9.11978C8.25053 8.79518 8.13729 8.46523 7.8407 8.3174C7.68108 8.23812 7.48048 8.21562 7.29714 8.20813C6.85064 8.18991 6.40306 8.23277 5.97274 8.04636C5.19946 7.71213 4.73787 7.13899 4.64727 6.30983C4.55344 5.4603 4.87591 4.7704 5.59419 4.29261C5.82715 4.13728 6.1054 4.04729 6.3761 3.92195L6.37287 3.92517Z" fill="#5039E4"/>
<path d="M11.9045 8.19849C11.5119 8.19849 11.1819 7.87068 11.1883 7.48716C11.1948 7.11222 11.5151 6.80155 11.8991 6.79726C12.296 6.79298 12.6249 7.10686 12.6303 7.49466C12.6357 7.87604 12.3035 8.19742 11.9045 8.19849Z" fill="#5039E4"/>
</svg>
