<svg width="21" height="21" viewBox="0 0 21 21" fill="none" xmlns="http://www.w3.org/2000/svg">
<g opacity="0.8" clip-path="url(#clip0_3697_285)">
<path d="M17.6543 6.45267C17.6543 7.21137 17.6599 7.97193 17.6543 8.73063C17.6488 9.28664 17.4182 9.51722 16.8584 9.51908C15.3557 9.52466 13.8512 9.52466 12.3486 9.51908C11.7925 9.51722 11.5414 9.28478 11.5359 8.73249C11.5228 7.21323 11.5247 5.69583 11.5359 4.17657C11.5396 3.628 11.7944 3.3844 12.3448 3.38254C13.8475 3.3751 15.352 3.3751 16.8547 3.38254C17.407 3.3844 17.6488 3.63172 17.6543 4.17471C17.6618 4.93341 17.6562 5.69397 17.6562 6.45267H17.6543ZM12.8693 4.77721C12.8693 5.84459 12.86 6.89524 12.8842 7.94404C12.886 8.03329 13.1036 8.18764 13.2226 8.19136C14.1358 8.21181 15.0507 8.1988 15.9639 8.20623C16.2372 8.20809 16.3563 8.10582 16.3544 7.82502C16.347 6.91198 16.3451 5.99708 16.3544 5.08403C16.3581 4.79022 16.2205 4.71212 15.9583 4.71398C15.0452 4.71956 14.1302 4.71398 13.217 4.71956C13.1129 4.71956 13.0088 4.75303 12.8674 4.77907L12.8693 4.77721Z" fill="#1C2933"/>
<path d="M3.34564 6.44337C3.34564 5.68467 3.34006 4.92411 3.3475 4.16541C3.35308 3.64102 3.5874 3.38812 4.10998 3.3844C5.64426 3.3751 7.17853 3.3751 8.7128 3.3844C9.20563 3.38812 9.45855 3.63916 9.46227 4.14124C9.47529 5.67537 9.47529 7.20951 9.46227 8.74365C9.45669 9.29222 9.20191 9.51908 8.64027 9.52094C7.13761 9.52652 5.6331 9.52652 4.13044 9.52094C3.57438 9.51908 3.35122 9.28664 3.34564 8.72319C3.3382 7.96449 3.34564 7.20393 3.34564 6.44523V6.44337ZM8.13257 4.73072C7.01487 4.73072 5.93623 4.72514 4.85759 4.74374C4.78692 4.74374 4.6586 4.93341 4.65674 5.03755C4.64186 5.9822 4.63629 6.92686 4.66232 7.87151C4.66604 7.98495 4.87061 8.18578 4.98777 8.1895C5.93251 8.21553 6.87725 8.21367 7.82199 8.1895C7.928 8.18764 8.11769 8.0054 8.11955 7.90313C8.14186 6.86735 8.13257 5.83158 8.13257 4.73072V4.73072Z" fill="#1C2933"/>
<path d="M6.36955 17.6528C5.61078 17.6528 4.85202 17.6602 4.09325 17.6509C3.57997 17.6454 3.35122 17.4222 3.34936 16.9164C3.34192 15.3674 3.34192 13.8202 3.34936 12.2712C3.35122 11.7915 3.57625 11.5423 4.05791 11.5386C5.62194 11.5237 7.18597 11.5237 8.75 11.5386C9.22423 11.5441 9.45669 11.7915 9.46041 12.2805C9.47529 13.8295 9.47529 15.3767 9.46041 16.9257C9.45483 17.4278 9.20377 17.6435 8.69235 17.6509C7.9187 17.6602 7.1432 17.6528 6.36955 17.6528V17.6528ZM6.38815 12.8644C5.93809 12.8644 5.4899 12.8737 5.03985 12.8607C4.77205 12.8533 4.64001 12.9351 4.64373 13.227C4.65303 14.1419 4.65303 15.055 4.64373 15.9699C4.64187 16.2507 4.75903 16.3548 5.03427 16.353C5.94925 16.3455 6.86238 16.3455 7.77736 16.353C8.03028 16.353 8.14001 16.2618 8.13815 15.9996C8.12885 15.0699 8.12885 14.1401 8.13815 13.2103C8.14187 12.9462 8.03958 12.8551 7.78294 12.8607C7.31801 12.8737 6.85308 12.8644 6.38815 12.8644V12.8644Z" fill="#1C2933"/>
<path d="M20.9981 2.34676C20.9981 2.82653 21.0019 3.3063 20.9981 3.78792C20.9944 4.34393 20.7805 4.62472 20.3603 4.63588C19.9232 4.64704 19.6926 4.36252 19.687 3.77676C19.6796 3.11104 19.6722 2.44532 19.6889 1.7796C19.6963 1.44302 19.5792 1.30541 19.2333 1.31285C18.5359 1.32958 17.8385 1.32401 17.1429 1.31285C16.6241 1.30355 16.3618 1.06925 16.3637 0.654564C16.3656 0.241742 16.6389 0.00743784 17.1504 0.00557828C18.1565 -3.9732e-07 19.1644 -3.9732e-07 20.1706 0.00557828C20.7712 0.0092974 20.9944 0.241742 20.9981 0.860975C21.0019 1.35562 20.9981 1.85212 20.9981 2.34676V2.34676Z" fill="#1C2933"/>
<path d="M20.9981 18.6663C20.9981 19.1925 21.0056 19.7188 20.9944 20.2469C20.9833 20.7415 20.7415 20.9888 20.2468 20.9926C19.1942 21.0019 18.1397 21.0019 17.0871 20.9926C16.6241 20.9888 16.3581 20.7266 16.3637 20.3268C16.3693 19.9363 16.6055 19.702 17.0667 19.6909C17.7938 19.6723 18.5228 19.6741 19.25 19.6853C19.5717 19.6909 19.6926 19.5681 19.6852 19.2483C19.6722 18.551 19.674 17.8536 19.6852 17.1582C19.6945 16.6245 19.9121 16.3697 20.3268 16.3641C20.7564 16.3585 20.9888 16.6393 20.9944 17.1805C21 17.6751 20.9944 18.1716 20.9944 18.6681L20.9981 18.6663Z" fill="#1C2933"/>
<path d="M2.33209 20.9963C1.80579 20.9963 1.27948 21.0056 0.753183 20.9926C0.256637 20.9814 0.0130127 20.7415 0.0092933 20.245C-5.31864e-06 19.1925 -5.31864e-06 18.14 0.0092933 17.0856C0.0130127 16.6207 0.271514 16.3567 0.673215 16.3623C1.0619 16.3678 1.29994 16.6059 1.3111 17.0633C1.3297 17.7904 1.32784 18.5193 1.31668 19.2464C1.3111 19.5663 1.43012 19.6909 1.75185 19.6834C2.44925 19.6704 3.14479 19.6741 3.84218 19.6834C4.37035 19.6909 4.63071 19.9122 4.63629 20.325C4.64187 20.7527 4.35919 20.987 3.81801 20.9926C3.32332 20.9981 2.82677 20.9926 2.33209 20.9926V20.9963Z" fill="#1C2933"/>
<path d="M0.00362661 2.32248C0.00362661 1.8111 -0.00195256 1.30158 0.00548633 0.790201C0.014785 0.258368 0.245391 0.0110463 0.764254 0.00732716C1.81686 -0.00197064 2.86946 -0.00197064 3.92206 0.00732716C4.36282 0.0110463 4.62318 0.256508 4.6362 0.633999C4.64922 1.03752 4.39815 1.296 3.92392 1.30902C3.25814 1.32761 2.59236 1.3146 1.92658 1.31832C1.5224 1.31956 1.31969 1.52907 1.31845 1.94685C1.31845 2.58096 1.32589 3.21693 1.31287 3.85104C1.30357 4.37171 1.07297 4.63577 0.660109 4.63577C0.24725 4.63577 0.0110655 4.36241 0.00362661 3.85475C-0.00381228 3.34338 0.00362661 2.83386 0.00362661 2.32248V2.32248Z" fill="#1C2933"/>
<path d="M17.6525 15.8267C17.6525 16.2135 17.6618 16.6003 17.6506 16.9852C17.6395 17.3832 17.4312 17.6212 17.0258 17.6454C16.6427 17.6677 16.3786 17.4073 16.3618 16.9796C16.3451 16.5166 16.347 16.0517 16.3544 15.5887C16.3581 15.3525 16.2651 15.2558 16.0271 15.2595C15.5789 15.2688 15.1307 15.2688 14.6825 15.2577C14.2232 15.2447 13.9572 14.9899 13.9609 14.5882C13.9665 14.2033 14.2083 13.9634 14.6602 13.956C15.4171 13.9411 16.174 13.9411 16.9309 13.956C17.4386 13.9653 17.6376 14.1903 17.6544 14.7147C17.6544 14.7463 17.6544 14.7761 17.6544 14.8077C17.6544 15.148 17.6544 15.4883 17.6544 15.8267H17.6525V15.8267Z" fill="#1C2933"/>
<path d="M11.5321 12.7993C11.5321 12.6301 11.5228 12.459 11.5321 12.2898C11.5638 11.7822 11.7758 11.5516 12.2798 11.5348C12.834 11.5162 13.3919 11.5162 13.9461 11.5367C14.3831 11.5534 14.6453 11.8175 14.6509 12.1838C14.6565 12.5595 14.3626 12.8328 13.92 12.8607C13.8122 12.8681 13.7043 12.8626 13.5964 12.8626C12.953 12.8626 12.9567 12.8644 12.8563 13.5209C12.7986 13.9002 12.5903 14.1494 12.1812 14.1438C11.7944 14.1382 11.5898 13.8983 11.547 13.5357C11.5173 13.2921 11.5414 13.0429 11.5414 12.7956H11.5303L11.5321 12.7993Z" fill="#1C2933"/>
<path d="M12.9046 16.3604C13.1371 16.3604 13.3696 16.3474 13.6002 16.3641C13.987 16.3902 14.2009 16.63 14.2064 16.9964C14.212 17.3608 14.0019 17.623 13.6188 17.6435C13.1259 17.6677 12.6294 17.6677 12.1366 17.6435C11.7516 17.623 11.547 17.3608 11.5545 16.9926C11.5619 16.6263 11.7776 16.3883 12.1645 16.366C12.4099 16.3511 12.6591 16.3641 12.9046 16.3641V16.3604Z" fill="#1C2933"/>
<path d="M16.3711 11.6334C16.3711 11.401 16.347 11.1667 16.3767 10.9379C16.4214 10.5976 16.6687 10.4154 16.9867 10.408C17.3289 10.4005 17.6023 10.5902 17.6339 10.9472C17.6711 11.3935 17.6711 11.8454 17.6358 12.2917C17.6079 12.6487 17.3419 12.8496 16.9997 12.8458C16.6575 12.844 16.4121 12.6431 16.3711 12.2824C16.347 12.0685 16.3674 11.8491 16.3674 11.6334H16.3711V11.6334Z" fill="#1C2933"/>
<path d="M10.9091 14.5548C11.2643 14.5659 11.5359 14.856 11.5303 15.2168C11.5228 15.5831 11.2495 15.849 10.8794 15.8453C10.5 15.8416 10.2062 15.5348 10.2303 15.1628C10.2527 14.8114 10.5539 14.5418 10.9091 14.5529V14.5548Z" fill="#1C2933"/>
<path d="M10.8757 10.4154C11.2309 10.408 11.5191 10.6943 11.5247 11.0607C11.5303 11.4251 11.2495 11.7227 10.8961 11.7282C10.5614 11.7338 10.2415 11.4214 10.2359 11.0811C10.2303 10.7371 10.5335 10.4228 10.8775 10.4154H10.8757Z" fill="#1C2933"/>
</g>
<defs>
<clipPath id="clip0_3697_285">
<rect width="21" height="21" fill="white"/>
</clipPath>
</defs>
</svg>
