<svg width="245" height="245" viewBox="0 0 245 245" fill="none" xmlns="http://www.w3.org/2000/svg">
<circle cx="122.5" cy="122.5" r="122.5" fill="#E0CE2D" fill-opacity="0.05"/>
<circle cx="123" cy="122" r="85.5" stroke="#E3E097" stroke-dasharray="2 2"/>
<path fill-rule="evenodd" clip-rule="evenodd" d="M123 182C138.913 182 154.174 175.679 165.426 164.426C176.679 153.174 183 137.913 183 122C183 106.087 176.679 90.8258 165.426 79.5736C154.174 68.3214 138.913 62 123 62C107.087 62 91.8258 68.3214 80.5736 79.5736C69.3214 90.8258 63 106.087 63 122C63 137.913 69.3214 153.174 80.5736 164.426C91.8258 175.679 107.087 182 123 182ZM150.802 112.302C152.169 110.888 152.925 108.993 152.908 107.027C152.89 105.061 152.102 103.179 150.711 101.789C149.321 100.398 147.439 99.6095 145.473 99.5924C143.507 99.5754 141.612 100.331 140.198 101.697L115.5 126.395L105.802 116.698C104.388 115.331 102.493 114.575 100.527 114.592C98.5605 114.61 96.6794 115.398 95.2889 116.789C93.8983 118.179 93.1095 120.061 93.0924 122.027C93.0754 123.993 93.8313 125.888 95.1975 127.302L110.197 142.302C111.604 143.709 113.511 144.498 115.5 144.498C117.489 144.498 119.396 143.709 120.802 142.302L150.802 112.302Z" fill="#E0CE2D"/>
</svg>
