<svg width="87" height="19" viewBox="0 0 87 19" fill="none" xmlns="http://www.w3.org/2000/svg">
<path d="M61.6364 10L60 11.6364L58.3636 10L60 8.36364L61.6364 10ZM60 5.09091L61.7345 6.82545L63.78 4.78L60 1L56.22 4.78L58.2655 6.82545L60 5.09091ZM55.0909 10L56.8255 8.26545L54.78 6.22L51 10L54.78 13.78L56.8255 11.7345L55.0909 10ZM64.9091 10L63.1745 11.7345L65.22 13.78L69 10L65.22 6.22L63.1745 8.26545L64.9091 10ZM60 14.9091L58.2655 13.1745L56.22 15.22L60 19L63.78 15.22L61.7345 13.1745L60 14.9091Z" fill="white"/>
<path d="M81.2215 12.35C81.1297 12.2993 81.0374 12.2536 80.9504 12.1985C79.9467 11.568 78.9435 10.938 77.9407 10.3087C77.3526 9.94267 76.7675 9.58349 76.1818 9.21812C75.9654 9.08335 75.9542 9.04626 76.0848 8.81876C76.8018 7.56708 77.52 6.31561 78.2394 5.06434C78.7099 4.24005 79.1815 3.41577 79.6543 2.59148C80.0212 1.95287 80.3917 1.3161 80.7598 0.681198C80.8639 0.495733 80.9651 0.315833 81.0674 0.134696C81.1697 -0.0464409 81.285 -0.0433498 81.3861 0.134696C82.0953 1.36453 82.8047 2.59643 83.5143 3.83038C84.2952 5.19046 85.075 6.55279 85.8536 7.9174C86.03 8.22651 86.2064 8.53562 86.3828 8.84472C86.4869 9.02648 86.4757 9.09201 86.3093 9.19649C85.2116 9.88271 84.1139 10.5679 83.0162 11.2521C82.4646 11.5958 81.913 11.9395 81.3614 12.2832C81.3191 12.3067 81.2738 12.324 81.2215 12.35Z" fill="white"/>
<path d="M86.4499 10.6262C86.4313 10.6674 86.4105 10.7073 86.3877 10.7457C85.9365 11.4738 85.485 12.2016 85.0333 12.9291C84.5504 13.7106 84.0705 14.4941 83.5875 15.2756C82.8441 16.4787 82.0997 17.6813 81.3542 18.8834C81.2573 19.0401 81.1622 19.0387 81.0633 18.8799L78.8151 15.2439C78.3763 14.5346 77.9373 13.8261 77.498 13.1182C77.0086 12.3278 76.5219 11.5356 76.0379 10.7415C76.0186 10.7079 76.0062 10.6697 76.0018 10.6299C75.9974 10.5901 76.001 10.5497 76.0125 10.5117C76.0628 10.4112 76.1517 10.452 76.2294 10.504C76.9492 10.9889 77.6698 11.4723 78.3912 11.9544L80.9397 13.6649C80.9867 13.709 81.0393 13.745 81.0957 13.7717C81.1696 13.79 81.2666 13.8082 81.325 13.7717C82.1101 13.2517 82.8901 12.7176 83.6727 12.1948C84.2682 11.7942 84.8647 11.396 85.4622 11.0001C85.7158 10.83 85.9682 10.6579 86.2243 10.492C86.3411 10.414 86.4542 10.4787 86.4499 10.6262Z" fill="white"/>
<path d="M43 10C43 14.9706 38.9706 19 34 19C29.0294 19 25 14.9706 25 10C25 5.02944 29.0294 1 34 1C38.9706 1 43 5.02944 43 10Z" fill="white"/>
<path d="M18 10C18 14.9706 13.9706 19 9 19C4.02944 19 0 14.9706 0 10C0 5.02944 4.02944 1 9 1C13.9706 1 18 5.02944 18 10Z" fill="white"/>
<path d="M33.2435 15V6.9205H30.13V5.64H37.7155V6.9205H34.602V15H33.2435Z" fill="#6957DD"/>
<path d="M8.367 16.2935V14.7725H9.7255V16.2935H8.367ZM8.367 5.874V4.3465H9.7255V5.874H8.367ZM9.1145 15.195C8.4645 15.195 7.88383 15.078 7.3725 14.844C6.86117 14.61 6.44083 14.2785 6.1115 13.8495C5.7865 13.4162 5.57417 12.9048 5.4745 12.3155L6.82 12.101C6.95 12.6557 7.22733 13.0977 7.652 13.427C8.07667 13.752 8.58583 13.9145 9.1795 13.9145C9.76883 13.9145 10.2477 13.7737 10.616 13.492C10.9887 13.2103 11.175 12.8507 11.175 12.413C11.175 12.101 11.0797 11.8475 10.889 11.6525C10.7027 11.4575 10.3972 11.2928 9.9725 11.1585L7.7755 10.4825C6.4755 10.0795 5.8255 9.2995 5.8255 8.1425C5.8255 7.5965 5.9555 7.122 6.2155 6.719C6.47983 6.316 6.85033 6.004 7.327 5.783C7.80367 5.562 8.3605 5.4515 8.9975 5.4515C9.6085 5.46017 10.1502 5.57283 10.6225 5.7895C11.0992 6.00617 11.4935 6.31817 11.8055 6.7255C12.1218 7.13283 12.3407 7.6225 12.462 8.1945L11.0775 8.4415C11.0168 8.10783 10.889 7.81317 10.694 7.5575C10.5033 7.30183 10.2607 7.1025 9.966 6.9595C9.67567 6.8165 9.3485 6.74283 8.9845 6.7385C8.64217 6.72983 8.3345 6.784 8.0615 6.901C7.79283 7.01367 7.57833 7.174 7.418 7.382C7.262 7.58567 7.184 7.8175 7.184 8.0775C7.184 8.3635 7.2945 8.60617 7.5155 8.8055C7.7365 9.00483 8.08533 9.176 8.562 9.319L10.2845 9.8195C11.0732 10.0535 11.643 10.3677 11.994 10.762C12.345 11.1563 12.5205 11.6807 12.5205 12.335C12.5205 12.907 12.3775 13.4075 12.0915 13.8365C11.8098 14.2612 11.4133 14.5948 10.902 14.8375C10.3907 15.0758 9.79483 15.195 9.1145 15.195Z" fill="#6957DD"/>
</svg>
