<svg width="87" height="22" viewBox="0 0 87 22" fill="none" xmlns="http://www.w3.org/2000/svg">
<path d="M61.6364 11L60 12.6364L58.3636 11L60 9.36364L61.6364 11ZM60 6.09091L61.7345 7.82545L63.78 5.78L60 2L56.22 5.78L58.2655 7.82545L60 6.09091ZM55.0909 11L56.8255 9.26545L54.78 7.22L51 11L54.78 14.78L56.8255 12.7345L55.0909 11ZM64.9091 11L63.1745 12.7345L65.22 14.78L69 11L65.22 7.22L63.1745 9.26545L64.9091 11ZM60 15.9091L58.2655 14.1745L56.22 16.22L60 20L63.78 16.22L61.7345 14.1745L60 15.9091Z" fill="white"/>
<path d="M81.2214 13.35C81.1297 13.2993 81.0374 13.2536 80.9504 13.1985C79.9467 12.568 78.9435 11.938 77.9407 11.3087C77.3526 10.9427 76.7675 10.5835 76.1818 10.2181C75.9654 10.0834 75.9542 10.0463 76.0848 9.81876C76.8018 8.56708 77.52 7.31561 78.2394 6.06434C78.7099 5.24005 79.1815 4.41577 79.6543 3.59148C80.0212 2.95287 80.3917 2.3161 80.7598 1.6812C80.8639 1.49573 80.9651 1.31583 81.0674 1.1347C81.1697 0.953559 81.285 0.95665 81.3861 1.1347C82.0953 2.36453 82.8047 3.59643 83.5143 4.83038C84.2952 6.19046 85.075 7.55279 85.8536 8.9174C86.03 9.22651 86.2064 9.53562 86.3828 9.84472C86.4869 10.0265 86.4757 10.092 86.3093 10.1965C85.2116 10.8827 84.1139 11.5679 83.0162 12.2521C82.4646 12.5958 81.913 12.9395 81.3614 13.2832C81.3191 13.3067 81.2738 13.324 81.2214 13.35Z" fill="white"/>
<path d="M86.4499 11.6264C86.4313 11.6676 86.4105 11.7075 86.3877 11.7459C85.9365 12.4739 85.485 13.2017 85.0333 13.9293C84.5504 14.7108 84.0705 15.4943 83.5875 16.2758C82.8441 17.4788 82.0997 18.6815 81.3542 19.8836C81.2573 20.0403 81.1622 20.0389 81.0633 19.8801L78.8151 16.2441C78.3763 15.5348 77.9373 14.8262 77.498 14.1184C77.0086 13.328 76.5219 12.5358 76.0379 11.7417C76.0186 11.7081 76.0062 11.6699 76.0018 11.6301C75.9974 11.5903 76.001 11.5499 76.0125 11.5119C76.0628 11.4114 76.1517 11.4522 76.2294 11.5042C76.9492 11.9891 77.6698 12.4725 78.3912 12.9546L80.9397 14.6651C80.9867 14.7092 81.0393 14.7452 81.0957 14.7719C81.1696 14.7902 81.2666 14.8084 81.325 14.7719C82.1101 14.2519 82.8901 13.7178 83.6727 13.195C84.2682 12.7944 84.8647 12.3962 85.4622 12.0003C85.7158 11.8302 85.9682 11.6581 86.2242 11.4922C86.3411 11.4142 86.4542 11.4789 86.4499 11.6264Z" fill="white"/>
<circle cx="34" cy="11" r="9" fill="white"/>
<path d="M33.2435 16V7.9205H30.13V6.64H37.7155V7.9205H34.602V16H33.2435Z" fill="#CBBB89"/>
<circle cx="9" cy="11" r="9" fill="white"/>
<path d="M8.367 17.2935V15.7725H9.7255V17.2935H8.367ZM8.367 6.874V5.3465H9.7255V6.874H8.367ZM9.1145 16.195C8.4645 16.195 7.88383 16.078 7.3725 15.844C6.86117 15.61 6.44083 15.2785 6.1115 14.8495C5.7865 14.4162 5.57417 13.9048 5.4745 13.3155L6.82 13.101C6.95 13.6557 7.22733 14.0977 7.652 14.427C8.07667 14.752 8.58583 14.9145 9.1795 14.9145C9.76883 14.9145 10.2477 14.7737 10.616 14.492C10.9887 14.2103 11.175 13.8507 11.175 13.413C11.175 13.101 11.0797 12.8475 10.889 12.6525C10.7027 12.4575 10.3972 12.2928 9.9725 12.1585L7.7755 11.4825C6.4755 11.0795 5.8255 10.2995 5.8255 9.1425C5.8255 8.5965 5.9555 8.122 6.2155 7.719C6.47983 7.316 6.85033 7.004 7.327 6.783C7.80367 6.562 8.3605 6.4515 8.9975 6.4515C9.6085 6.46017 10.1502 6.57283 10.6225 6.7895C11.0992 7.00617 11.4935 7.31817 11.8055 7.7255C12.1218 8.13283 12.3407 8.6225 12.462 9.1945L11.0775 9.4415C11.0168 9.10783 10.889 8.81317 10.694 8.5575C10.5033 8.30183 10.2607 8.1025 9.966 7.9595C9.67567 7.8165 9.3485 7.74283 8.9845 7.7385C8.64217 7.72983 8.3345 7.784 8.0615 7.901C7.79283 8.01367 7.57833 8.174 7.418 8.382C7.262 8.58567 7.184 8.8175 7.184 9.0775C7.184 9.3635 7.2945 9.60617 7.5155 9.8055C7.7365 10.0048 8.08533 10.176 8.562 10.319L10.2845 10.8195C11.0732 11.0535 11.643 11.3677 11.994 11.762C12.345 12.1563 12.5205 12.6807 12.5205 13.335C12.5205 13.907 12.3775 14.4075 12.0915 14.8365C11.8098 15.2612 11.4133 15.5948 10.902 15.8375C10.3907 16.0758 9.79483 16.195 9.1145 16.195Z" fill="#CBBB89"/>
</svg>
